<svg xmlns="http://www.w3.org/2000/svg" viewBox="0 0 24 24" width="24" height="24">
  <path d="M21.829 0H2.171A2.171 2.171 0 000 2.171v19.658C0 23.028.972 24 2.171 24h19.658A2.171 2.171 0 0024 21.829V2.171A2.171 2.171 0 0021.829 0zM7.427 20.723a.632.632 0 01-.632.632h-2.69a.632.632 0 01-.631-.632V9.449c0-.349.283-.631.631-.631h2.69c.349 0 .632.282.632.631v11.274zM5.45 7.755a2.555 2.555 0 110-5.11 2.555 2.555 0 010 5.11zm16.031 13.019a.58.58 0 01-.581.581h-2.886a.58.58 0 01-.58-.581v-5.288c0-.789.231-3.457-2.062-3.457-1.779 0-2.139 1.826-2.212 2.646v6.099a.58.58 0 01-.581.581H9.788a.58.58 0 01-.581-.581V9.399a.58.58 0 01.581-.581h2.791a.58.58 0 01.581.581v.983c.66-.99 1.64-1.754 3.727-1.754 4.621 0 4.594 4.318 4.594 6.69v5.456z"/>
</svg>
